<svg xmlns="http://www.w3.org/2000/svg" width="21.125" height="21.125" viewBox="0 0 21.125 21.125">
  <path id="Icon_material-call" data-name="Icon material-call" d="M7.5,10.965a12.571,12.571,0,0,0,5.469,5.469L14.8,14.608a.825.825,0,0,1,.846-.2,9.466,9.466,0,0,0,2.963.473.832.832,0,0,1,.83.83v2.9a.832.832,0,0,1-.83.83A14.106,14.106,0,0,1,4.5,5.33a.832.832,0,0,1,.83-.83h2.9a.832.832,0,0,1,.83.83,9.427,9.427,0,0,0,.473,2.963.833.833,0,0,1-.207.846Z" transform="translate(10.562 -6.364) rotate(45)" fill="#d8d7d7"/>
</svg>
