<svg id="trash" xmlns="http://www.w3.org/2000/svg" width="13.407" height="16.501" viewBox="0 0 13.407 16.501">
  <path id="Path_613" data-name="Path 613" d="M60.118,2.063H57.282V1.547A1.547,1.547,0,0,0,55.735,0H53.672a1.547,1.547,0,0,0-1.547,1.547v.516H49.289A1.289,1.289,0,0,0,48,3.352V4.383a.516.516,0,0,0,.516.516H60.891a.516.516,0,0,0,.516-.516V3.352A1.289,1.289,0,0,0,60.118,2.063Zm-6.961-.516a.516.516,0,0,1,.516-.516h2.063a.516.516,0,0,1,.516.516v.516H53.157Z" transform="translate(-48)" fill="#fff"/>
  <path id="Path_614" data-name="Path 614" d="M73.525,184a.161.161,0,0,0-.161.169l.425,8.929a1.545,1.545,0,0,0,1.545,1.473h7.831a1.545,1.545,0,0,0,1.545-1.473l.425-8.929a.161.161,0,0,0-.161-.169Zm7.788,1.289a.516.516,0,1,1,1.031,0v6.7a.516.516,0,0,1-1.031,0Zm-2.578,0a.516.516,0,1,1,1.031,0v6.7a.516.516,0,1,1-1.031,0Zm-2.578,0a.516.516,0,1,1,1.031,0v6.7a.516.516,0,0,1-1.031,0Z" transform="translate(-72.547 -178.07)" fill="#fff"/>
</svg>
