<svg id="Layer_1" data-name="Layer 1" xmlns="http://www.w3.org/2000/svg" viewBox="0 0 170.2 68.23"><defs><style>.cls-1{fill:none;stroke-width:3px;}.cls-1,.cls-2,.cls-3{stroke:#fff;}.cls-2,.cls-3{fill:#fff;}.cls-2{stroke-width:0.5px;}</style></defs><rect class="cls-1" x="1.5" y="1.5" width="167.2" height="65.23"/><path class="cls-2" d="M20.76,14.78a.49.49,0,0,0-.13-.38L20.17,14s-.11-.08-.11-.12a.08.08,0,0,1,.09-.08h2c1.53,0,2.45,1.31,2.45,4.78,0,4.38-.92,5.29-2.45,5.29h-2a.08.08,0,0,1-.09-.08s.08-.07.11-.12l.46-.39a.47.47,0,0,0,.13-.38Zm1.18,8.43h.27c.6,0,1.16-.51,1.16-4.62,0-3.59-.56-4.11-1.16-4.11h-.27Z" transform="translate(-0.19 -1.53)"/><path class="cls-2" d="M29.67,21c0,1.69.26,2.33,1,2.33a1.21,1.21,0,0,0,1.07-.63.13.13,0,0,1,.11-.06s.06,0,0,.08a1.47,1.47,0,0,1-1.4,1.19c-1.39,0-2-1.21-2-4.21,0-2,.67-3.25,1.74-3.25.88,0,1.65.56,1.65,2.52v.83c0,.1,0,.16-.14.16H29.67Zm1.13-1.55V18.08c0-.71-.21-1.08-.58-1.08s-.55.37-.55,1.08v1.34Z" transform="translate(-0.19 -1.53)"/><path class="cls-2" d="M37.5,16.42c.78,0,1.16.68,1.31,1.35,0,.06,0,.11,0,.11s-.07,0-.1-.07c-.41-.55-.68-.81-1.09-.81s-.69.56-.69,2.85c0,2.77.26,3.45.76,3.45a1.33,1.33,0,0,0,1-.71c0-.06.09-.11.14-.11s.06.05,0,.1c-.18.62-.55,1.3-1.34,1.3-1.22,0-1.8-1.21-1.8-4C35.7,17.63,36.37,16.42,37.5,16.42Z" transform="translate(-0.19 -1.53)"/><path class="cls-2" d="M42.8,17.06a.14.14,0,0,0,0-.11l-.45-.37a.24.24,0,0,1-.06-.11s0,0,.09,0h1.46c.05,0,.08,0,.08.08v6.64c0,.06,0,.1,0,.12l.47.47a.18.18,0,0,1,.06.1s0,.05-.09.05h-2s-.09,0-.09-.05a.18.18,0,0,1,.06-.1l.47-.47s0-.06,0-.12Zm1.07-2.54c0,.35-.25.72-.55.72s-.57-.37-.57-.72a.67.67,0,0,1,.57-.71C43.62,13.81,43.87,14.16,43.87,14.52Z" transform="translate(-0.19 -1.53)"/><path class="cls-2" d="M50.61,19.08a.09.09,0,0,1-.09.1s-.07-.05-.09-.12A6.38,6.38,0,0,0,50,17.67c-.2-.43-.41-.67-.7-.67s-.38.32-.38.72a4.22,4.22,0,0,0,.93,2.19,4.79,4.79,0,0,1,1,2.63,1.32,1.32,0,0,1-1.31,1.34,1.1,1.1,0,0,1-.91-.43l-.4.36a.3.3,0,0,1-.15.07s0,0,0-.09V21.21s0-.09.06-.09.08.05.09.12c.25,1.08.6,2.06,1.16,2.06.34,0,.49-.22.49-.57a4.58,4.58,0,0,0-1-2.42A4.5,4.5,0,0,1,48,17.85a1.33,1.33,0,0,1,1.15-1.43,1.19,1.19,0,0,1,.9.43l.45-.35s.06-.08.1-.08.06.06.06.13Z" transform="translate(-0.19 -1.53)"/><path class="cls-2" d="M54.89,17.06a.14.14,0,0,0,0-.11l-.46-.37a.24.24,0,0,1-.06-.11s0,0,.09,0h1.46s.08,0,.08.08v6.64c0,.06,0,.1,0,.12l.47.47a.18.18,0,0,1,.06.1s0,.05-.09.05h-2c-.05,0-.09,0-.09-.05a.18.18,0,0,1,.06-.1l.47-.47s0-.06,0-.12ZM56,14.52c0,.35-.25.72-.55.72s-.56-.37-.56-.72a.66.66,0,0,1,.56-.71C55.71,13.81,56,14.16,56,14.52Z" transform="translate(-0.19 -1.53)"/><path class="cls-2" d="M62.08,23.64c0,.12-.06.24-.17.24h-.42c-.13,0-.17-.12-.19-.2l-1.09-6.54a.41.41,0,0,0-.13-.24l-.32-.32a.24.24,0,0,1-.06-.11s0,0,.09,0h1.76s.09,0,.09,0,0,.06-.06.11L61.2,17a.24.24,0,0,0-.06.22l.62,3.73h0l.55-3.73a.25.25,0,0,0-.06-.22l-.4-.38c0-.05-.06-.07-.06-.11s0,0,.09,0H63.5s.09,0,.09,0,0,.07-.08.11l-.36.32a.41.41,0,0,0-.13.24Z" transform="translate(-0.19 -1.53)"/><path class="cls-2" d="M67.91,21c0,1.69.26,2.33,1,2.33a1.21,1.21,0,0,0,1.07-.63.13.13,0,0,1,.11-.06s.06,0,0,.08a1.47,1.47,0,0,1-1.4,1.19c-1.39,0-2-1.21-2-4.21,0-2,.67-3.25,1.74-3.25.88,0,1.65.56,1.65,2.52v.83c0,.1,0,.16-.14.16H67.91ZM69,19.42V18.08c0-.71-.21-1.08-.58-1.08s-.55.37-.55,1.08v1.34Z" transform="translate(-0.19 -1.53)"/><path class="cls-2" d="M80.32,14.46h-.56c-.09,0-.14.06-.17.15l-.79,2.67a.11.11,0,0,1-.12.08c-.06,0-.08,0-.08-.1V13.87s0-.06.08-.06h4.46s.08,0,.08.06v3.39c0,.07,0,.1-.08.1a.12.12,0,0,1-.12-.08l-.79-2.67c0-.09-.08-.15-.17-.15H81.5v8.45c0,.17,0,.29.12.38l.46.39s.1.08.1.12,0,.08-.09.08H79.73c-.08,0-.09,0-.09-.08s.06-.08.1-.12l.46-.39c.11-.09.12-.21.12-.38Z" transform="translate(-0.19 -1.53)"/><path class="cls-2" d="M87.91,21c0,1.69.26,2.33,1,2.33a1.2,1.2,0,0,0,1.06-.63.14.14,0,0,1,.11-.06s.06,0,0,.08a1.49,1.49,0,0,1-1.41,1.19c-1.38,0-2-1.21-2-4.21,0-2,.67-3.25,1.74-3.25.88,0,1.64.56,1.64,2.52v.83c0,.1,0,.16-.14.16h-2ZM89,19.42V18.08c0-.71-.22-1.08-.58-1.08s-.55.37-.55,1.08v1.34Z" transform="translate(-0.19 -1.53)"/><path class="cls-2" d="M95.74,16.42c.77,0,1.15.68,1.31,1.35,0,.06,0,.11,0,.11s-.06,0-.09-.07c-.41-.55-.69-.81-1.1-.81s-.68.56-.68,2.85c0,2.77.25,3.45.76,3.45a1.3,1.3,0,0,0,1-.71c0-.06.09-.11.14-.11s.06.05,0,.1c-.19.62-.55,1.3-1.34,1.3-1.22,0-1.8-1.21-1.8-4C93.94,17.63,94.61,16.42,95.74,16.42Z" transform="translate(-0.19 -1.53)"/><path class="cls-2" d="M102.1,16.89h0a1.37,1.37,0,0,1,1.05-.47,1.21,1.21,0,0,1,1.27,1.37v5.35c0,.06,0,.1,0,.12l.47.47a.18.18,0,0,1,.06.1s-.05.05-.09.05h-2c-.06,0-.09,0-.09-.05a.18.18,0,0,1,.06-.1l.47-.47s0-.06,0-.12V17.77c0-.51-.17-.77-.52-.77s-.76.44-.76,1.16v5c0,.06,0,.1,0,.12l.47.47a.15.15,0,0,1,.07.1s0,.05-.09.05h-2c-.06,0-.09,0-.09-.05a.14.14,0,0,1,.06-.1l.47-.47s0-.06,0-.12V14.46c0-.06,0-.08-.07-.11l-.44-.39a.14.14,0,0,1-.06-.09s0-.06.09-.06H102c.06,0,.09,0,.09.08Z" transform="translate(-0.19 -1.53)"/><path class="cls-2" d="M109.84,16.89h0a1.36,1.36,0,0,1,1-.47,1.21,1.21,0,0,1,1.26,1.37v5.35c0,.06,0,.1,0,.12l.48.47a.18.18,0,0,1,.06.1s0,.05-.09.05h-2c-.06,0-.09,0-.09-.05a.18.18,0,0,1,.06-.1l.48-.47s0-.06,0-.12V17.77c0-.51-.17-.77-.52-.77s-.76.44-.76,1.16v5a.35.35,0,0,0,0,.12l.48.47a.15.15,0,0,1,.07.1s-.05.05-.09.05h-2c-.06,0-.09,0-.09-.05a.11.11,0,0,1,.06-.1l.47-.47s0-.06,0-.12V17.06a.12.12,0,0,0,0-.11l-.45-.37a.24.24,0,0,1-.06-.11s0,0,.09,0h1.46c.06,0,.08,0,.08.08Z" transform="translate(-0.19 -1.53)"/><path class="cls-2" d="M119.87,19.83c0,3.31-.82,4.05-1.81,4.05s-1.8-.74-1.8-4.05c0-2.65.83-3.41,1.8-3.41S119.87,17.18,119.87,19.83Zm-1.18,0c0-2.34-.22-2.83-.63-2.83s-.61.49-.61,2.83c0,3,.22,3.47.61,3.47S118.69,22.85,118.69,19.83Z" transform="translate(-0.19 -1.53)"/><path class="cls-2" d="M125,23.14c0,.06,0,.1,0,.12l.47.47a.18.18,0,0,1,.06.1s0,.05-.09.05h-2s-.09,0-.09-.05a.18.18,0,0,1,.06-.1l.47-.47s0-.06,0-.12V14.46a.12.12,0,0,0,0-.11l-.46-.39a.2.2,0,0,1-.06-.09s0-.06.09-.06h1.46a.07.07,0,0,1,.08.08Z" transform="translate(-0.19 -1.53)"/><path class="cls-2" d="M132.71,19.83c0,3.31-.82,4.05-1.81,4.05s-1.8-.74-1.8-4.05c0-2.65.82-3.41,1.8-3.41S132.71,17.18,132.71,19.83Zm-1.19,0c0-2.34-.21-2.83-.62-2.83s-.61.49-.61,2.83c0,3,.21,3.47.61,3.47S131.52,22.85,131.52,19.83Z" transform="translate(-0.19 -1.53)"/><path class="cls-2" d="M140,22.31c0,2.83-.72,3.34-1.75,3.34a1.61,1.61,0,0,1-1.6-1.18s0-.09.06-.09.09.05.13.1a1.54,1.54,0,0,0,1.21.6c.55,0,.88-.39.88-1.71h0a1.26,1.26,0,0,1-1,.51c-.67,0-1.37-.34-1.37-4.12,0-3,.73-3.34,1.45-3.34a1.45,1.45,0,0,1,1.05.51h0l.73-.45a.24.24,0,0,1,.15-.06s.08,0,.08.06Zm-1.07-4c0-.85-.38-1.26-.72-1.26s-.51.3-.51,2.76c0,3.23.15,3.54.55,3.54s.68-.41.68-1.07Z" transform="translate(-0.19 -1.53)"/><path class="cls-2" d="M145.56,16.42c.05,0,.1,0,.1,0a.21.21,0,0,1,0,.11l-.29.33a.32.32,0,0,0-.06.26l.55,3.89h0l.44-3.89a.32.32,0,0,0-.08-.26l-.33-.33a.2.2,0,0,1-.06-.11s0,0,.09,0h1.61c.05,0,.1,0,.1,0a.14.14,0,0,1-.07.11l-.38.32a.46.46,0,0,0-.12.24l-1,7.26c-.12.88-.55,1.25-1,1.25-.76,0-1.08-.86-1.08-1.27,0-.06,0-.1.06-.1s.09,0,.12.1c.21.37.4.7.72.7s.48-.3.48-.77a9.37,9.37,0,0,0-.1-1.18l-.92-6a.47.47,0,0,0-.1-.2l-.34-.36a.24.24,0,0,1-.06-.11s0,0,.09,0Z" transform="translate(-0.19 -1.53)"/><path class="cls-2" d="M39.59,58.78V52.66H41a2.82,2.82,0,0,1,.58.05,1.17,1.17,0,0,1,.77.88,2.75,2.75,0,0,1,.12.84c0,1.24-.48,1.86-1.42,1.86h-1v2.49Zm.5-3.22h1c.59,0,.89-.37.89-1.11a1.54,1.54,0,0,0-.11-.63.67.67,0,0,0-.33-.38,1.22,1.22,0,0,0-.47-.06h-1Z" transform="translate(-0.19 -1.53)"/><path class="cls-2" d="M46,58.78V54.34h.42V55c.17-.51.37-.77.59-.77a.71.71,0,0,1,.48.25l-.16.7A.5.5,0,0,0,47,55c-.23,0-.37.19-.45.56a4.83,4.83,0,0,0-.07.88v2.32Z" transform="translate(-0.19 -1.53)"/><path class="cls-2" d="M50.55,56.56A3.15,3.15,0,0,1,51,54.74a1,1,0,0,1,1.82.15,3.38,3.38,0,0,1,.33,1.61,2.74,2.74,0,0,1-.62,2.1.93.93,0,0,1-.66.28,1,1,0,0,1-1-.67A3.51,3.51,0,0,1,50.55,56.56Zm.47,0a3.42,3.42,0,0,0,.18,1.17c.15.35.36.53.64.53s.49-.18.63-.55a3.2,3.2,0,0,0,.18-1.17,2.91,2.91,0,0,0-.19-1.15c-.14-.35-.35-.53-.62-.53s-.49.18-.64.54A3.36,3.36,0,0,0,51,56.56Z" transform="translate(-0.19 -1.53)"/><path class="cls-2" d="M58.4,58.78v-.56c-.18.44-.43.66-.77.66a.8.8,0,0,1-.61-.3,2.06,2.06,0,0,1-.42-.81,4.4,4.4,0,0,1-.15-1.21,2.92,2.92,0,0,1,.55-2,.82.82,0,0,1,.61-.29c.32,0,.57.21.75.61V52.66h.47v6.12Zm-1.48-2.22a3.32,3.32,0,0,0,.17,1.13c.13.38.32.57.58.57s.45-.18.58-.53a3.44,3.44,0,0,0,.15-1.1,3.89,3.89,0,0,0-.15-1.18c-.13-.39-.33-.59-.6-.59s-.45.19-.58.56A3.66,3.66,0,0,0,56.92,56.56Z" transform="translate(-0.19 -1.53)"/><path class="cls-2" d="M64.31,58.78v-.65q-.33.75-.87.75a.8.8,0,0,1-.77-.53,1.7,1.7,0,0,1-.14-.56,5.81,5.81,0,0,1,0-.7V54.34H63V56.8a6.65,6.65,0,0,0,0,.8c.06.42.23.63.53.63a.56.56,0,0,0,.39-.16,1,1,0,0,0,.26-.48,3.77,3.77,0,0,0,.08-.87V54.34h.47v4.44Z" transform="translate(-0.19 -1.53)"/><path class="cls-2" d="M70.19,57.15l.46.1a2.49,2.49,0,0,1-.37,1.18.91.91,0,0,1-.77.45,1,1,0,0,1-1-.67,3.74,3.74,0,0,1-.3-1.63,2.8,2.8,0,0,1,.59-2.07,1,1,0,0,1,.66-.27c.62,0,1,.47,1.1,1.41l-.45.11q-.14-.9-.63-.9c-.53,0-.8.57-.8,1.7s.26,1.7.77,1.7S70.13,57.89,70.19,57.15Z" transform="translate(-0.19 -1.53)"/><path class="cls-2" d="M75,58.11l.07.66a1.34,1.34,0,0,1-.36.07.56.56,0,0,1-.59-.48,3.91,3.91,0,0,1-.06-.88V54.93h-.34v-.59h.34V53.25l.47-.46v1.55H75v.59h-.47v2.59a2,2,0,0,0,0,.44.23.23,0,0,0,.23.18Z" transform="translate(-0.19 -1.53)"/><path class="cls-2" d="M78.23,57.45l.46-.11c0,.61.29.92.71.92a.6.6,0,0,0,.42-.15.71.71,0,0,0,.22-.56.57.57,0,0,0-.14-.4,1.6,1.6,0,0,0-.48-.25,4.86,4.86,0,0,1-.55-.25,1,1,0,0,1-.46-.54,1.59,1.59,0,0,1-.1-.59,1.43,1.43,0,0,1,.31-1,.9.9,0,0,1,.7-.31.94.94,0,0,1,.93.56,2.51,2.51,0,0,1,.16.69l-.46.09q-.06-.72-.6-.72a.51.51,0,0,0-.59.57.52.52,0,0,0,.23.47l.41.19a5.61,5.61,0,0,1,.54.25,1.1,1.1,0,0,1,.46.5,1.65,1.65,0,0,1,.11.63A1.38,1.38,0,0,1,80,58.69a.92.92,0,0,1-.58.19C78.72,58.88,78.33,58.4,78.23,57.45Z" transform="translate(-0.19 -1.53)"/><path class="cls-2" d="M91.59,56.63l.5.21a3.34,3.34,0,0,1-.55,1.5,1.23,1.23,0,0,1-1,.54c-.78,0-1.3-.52-1.58-1.57a6.64,6.64,0,0,1-.2-1.64,3.57,3.57,0,0,1,.87-2.75,1.35,1.35,0,0,1,.92-.37,1.18,1.18,0,0,1,1,.46A2.78,2.78,0,0,1,92,54.33l-.49.19c-.17-.84-.51-1.27-1-1.27s-1,.42-1.15,1.24a5.69,5.69,0,0,0-.11,1.18,3.2,3.2,0,0,0,.57,2.23.93.93,0,0,0,.65.28C91.08,58.18,91.45,57.67,91.59,56.63Z" transform="translate(-0.19 -1.53)"/><path class="cls-2" d="M95.42,56.56a3.15,3.15,0,0,1,.43-1.82,1,1,0,0,1,.86-.5,1.06,1.06,0,0,1,1,.65A3.38,3.38,0,0,1,98,56.5a2.78,2.78,0,0,1-.62,2.1,1,1,0,0,1-.67.28,1.06,1.06,0,0,1-1-.67A3.64,3.64,0,0,1,95.42,56.56Zm.48,0a3.2,3.2,0,0,0,.18,1.17c.14.35.35.53.63.53s.5-.18.64-.55a3.45,3.45,0,0,0,.17-1.17,3.12,3.12,0,0,0-.18-1.15c-.14-.35-.35-.53-.63-.53s-.49.18-.63.54A3.14,3.14,0,0,0,95.9,56.56Z" transform="translate(-0.19 -1.53)"/><path class="cls-2" d="M102.47,58.22a.75.75,0,0,1-.11.43.31.31,0,0,1-.27.19.3.3,0,0,1-.26-.19.75.75,0,0,1-.11-.43.77.77,0,0,1,.11-.43.31.31,0,0,1,.26-.18.32.32,0,0,1,.27.18A.77.77,0,0,1,102.47,58.22Z" transform="translate(-0.19 -1.53)"/><path class="cls-2" d="M106.44,58.78v-.86H107v.85a1.42,1.42,0,0,1-.44,1.22l-.13-.32a1.09,1.09,0,0,0,.3-.89Z" transform="translate(-0.19 -1.53)"/><path class="cls-2" d="M110.77,58.78V52.66h.5v5.39h1.87v.73Z" transform="translate(-0.19 -1.53)"/><path class="cls-2" d="M117.64,58.11l.07.66a1.27,1.27,0,0,1-.35.07.56.56,0,0,1-.59-.48,3.91,3.91,0,0,1-.06-.88V54.93h-.34v-.59h.34V53.25l.47-.46v1.55h.46v.59h-.46v2.59a2,2,0,0,0,0,.44.22.22,0,0,0,.23.18Z" transform="translate(-0.19 -1.53)"/><path class="cls-2" d="M122.82,58.78v-.56c-.17.44-.43.66-.77.66a.83.83,0,0,1-.61-.3,1.93,1.93,0,0,1-.41-.81,4,4,0,0,1-.16-1.21,3,3,0,0,1,.55-2,.84.84,0,0,1,.61-.29c.33,0,.58.21.76.61V52.66h.47v6.12Zm-1.47-2.22a3.34,3.34,0,0,0,.16,1.13c.13.38.33.57.59.57s.44-.18.57-.53a3.16,3.16,0,0,0,.16-1.1,3.89,3.89,0,0,0-.15-1.18c-.13-.39-.33-.59-.6-.59s-.46.19-.58.56A3.66,3.66,0,0,0,121.35,56.56Z" transform="translate(-0.19 -1.53)"/><path class="cls-2" d="M127.92,58.22a.75.75,0,0,1-.12.43.28.28,0,0,1-.53,0,.83.83,0,0,1-.11-.43.86.86,0,0,1,.11-.43.29.29,0,0,1,.53,0A.77.77,0,0,1,127.92,58.22Z" transform="translate(-0.19 -1.53)"/><path class="cls-3" d="M12.07,40.05S98,20.72,84.16,37.2s74.36-4.74,74.36-4.74-95,23-80.43,6.42S12.07,40.05,12.07,40.05Z" transform="translate(-0.19 -1.53)"/></svg>