<svg xmlns="http://www.w3.org/2000/svg" width="37" height="35.391" viewBox="0 0 37 35.391">
  <g id="logout" transform="translate(0 -0.332)">
    <path id="Path_624" data-name="Path 624" d="M173.865,221.413H150.539a1.207,1.207,0,1,1,0-2.413h23.326a1.207,1.207,0,0,1,0,2.413Zm0,0" transform="translate(-138.071 -202.179)" fill="#fff"/>
    <path id="Path_625" data-name="Path 625" d="M156.981,148.936a1.2,1.2,0,0,1-.853-.354l-6.435-6.435a1.207,1.207,0,0,1,0-1.707l6.435-6.435a1.207,1.207,0,1,1,1.707,1.707l-5.582,5.582,5.582,5.582a1.206,1.206,0,0,1-.854,2.059Zm0,0" transform="translate(-138.079 -123.267)" fill="#fff"/>
    <path id="Path_626" data-name="Path 626" d="M17.7,35.723a17.7,17.7,0,1,1,16.47-24.169,1.207,1.207,0,1,1-2.246.883,15.282,15.282,0,1,0,0,11.182,1.207,1.207,0,1,1,2.246.883A17.605,17.605,0,0,1,17.7,35.723Zm0,0" transform="translate(0 0)" fill="#fff"/>
  </g>
</svg>
